<svg width="22" height="22" viewBox="0 0 22 22" fill="none" xmlns="http://www.w3.org/2000/svg">
<path fill-rule="evenodd" clip-rule="evenodd" d="M6.46494 0.066C7.63828 0.01222 8.01228 0 11 0C13.9883 0 14.3617 0.01283 15.5344 0.066C16.7059 0.11917 17.5059 0.30556 18.2056 0.5775C18.9395 0.85381 19.6043 1.28674 20.1538 1.84617C20.7133 2.3956 21.1463 3.06046 21.4225 3.79439C21.6944 4.49411 21.8802 5.29406 21.934 6.46494C21.9878 7.63828 22 8.01228 22 11C22 13.9877 21.9872 14.3617 21.934 15.5351C21.8808 16.7059 21.6944 17.5059 21.4225 18.2056C21.1414 18.9286 20.7649 19.5427 20.1538 20.1538C19.6044 20.7133 18.9395 21.1463 18.2056 21.4225C17.5059 21.6944 16.7059 21.8802 15.5351 21.934C14.3617 21.9878 13.9877 22 11 22C8.01228 22 7.63828 21.9872 6.46494 21.934C5.29406 21.8808 4.49411 21.6944 3.79439 21.4225C3.07144 21.1414 2.45728 20.7649 1.84617 20.1538C1.28664 19.6044 0.85368 18.9395 0.5775 18.2056C0.30556 17.5059 0.11978 16.7059 0.066 15.5351C0.01222 14.3617 0 13.9883 0 11C0 8.01167 0.01283 7.63828 0.066 6.46556C0.11917 5.29406 0.30556 4.49411 0.5775 3.79439C0.85381 3.06051 1.28674 2.39568 1.84617 1.84617C2.39559 1.28664 3.06045 0.85368 3.79439 0.5775C4.49411 0.30556 5.29406 0.11978 6.46494 0.066ZM15.4452 2.046C14.2853 1.99344 13.937 1.98183 11 1.98183C8.063 1.98183 7.71467 1.99344 6.55478 2.046C5.48228 2.09489 4.89989 2.27394 4.51244 2.42489C3.99911 2.62411 3.63244 2.86244 3.24744 3.24744C2.86306 3.63244 2.62411 3.99911 2.42489 4.51244C2.27394 4.89989 2.09489 5.48228 2.046 6.55478C1.99344 7.71467 1.98183 8.063 1.98183 11C1.98183 13.937 1.99344 14.2853 2.046 15.4452C2.09489 16.5177 2.27394 17.1001 2.42489 17.4876C2.60111 17.9654 2.88219 18.3976 3.24744 18.7526C3.60234 19.1178 4.03461 19.3989 4.51244 19.5751C4.89989 19.7261 5.48228 19.9051 6.55478 19.954C7.71467 20.0066 8.06239 20.0182 11 20.0182C13.9376 20.0182 14.2853 20.0066 15.4452 19.954C16.5177 19.9051 17.1001 19.7261 17.4876 19.5751C18.0009 19.3759 18.3676 19.1376 18.7526 18.7526C19.1178 18.3977 19.3989 17.9654 19.5751 17.4876C19.7261 17.1001 19.9051 16.5177 19.954 15.4452C20.0066 14.2853 20.0182 13.937 20.0182 11C20.0182 8.063 20.0066 7.71467 19.954 6.55478C19.9051 5.48228 19.7261 4.89989 19.5751 4.51244C19.3759 3.99911 19.1376 3.63244 18.7526 3.24744C18.3676 2.86306 18.0009 2.62411 17.4876 2.42489C17.1001 2.27394 16.5177 2.09489 15.4452 2.046ZM9.5955 14.3909C10.0408 14.5754 10.518 14.6703 11 14.6703C11.9735 14.6703 12.907 14.2836 13.5953 13.5953C14.2837 12.907 14.6704 11.9734 14.6704 11C14.6704 10.0266 14.2837 9.093 13.5953 8.40468C12.907 7.71636 11.9735 7.32966 11 7.32966C10.518 7.32966 10.0408 7.4246 9.5955 7.60905C9.1501 7.7935 8.74553 8.06385 8.40471 8.40468C8.06389 8.7455 7.79353 9.1501 7.60908 9.5954C7.42463 10.0407 7.3297 10.518 7.3297 11C7.3297 11.482 7.42463 11.9593 7.60908 12.4046C7.79353 12.8499 8.06389 13.2545 8.40471 13.5953C8.74553 13.9361 9.1501 14.2065 9.5955 14.3909ZM7.00205 7.00201C8.06238 5.94168 9.5005 5.34599 11 5.34599C12.4996 5.34599 13.9377 5.94168 14.998 7.00201C16.0583 8.06234 16.654 9.5005 16.654 11C16.654 12.4995 16.0583 13.9376 14.998 14.998C13.9377 16.0583 12.4996 16.654 11 16.654C9.5005 16.654 8.06238 16.0583 7.00205 14.998C5.94172 13.9376 5.34603 12.4995 5.34603 11C5.34603 9.5005 5.94172 8.06234 7.00205 7.00201ZM17.9077 6.18838C18.1583 5.93773 18.2991 5.59779 18.2991 5.24333C18.2991 4.88886 18.1583 4.54892 17.9077 4.29828C17.657 4.04764 17.3171 3.90683 16.9626 3.90683C16.6082 3.90683 16.2682 4.04764 16.0176 4.29828C15.7669 4.54892 15.6261 4.88886 15.6261 5.24333C15.6261 5.59779 15.7669 5.93773 16.0176 6.18838C16.2682 6.43902 16.6082 6.57983 16.9626 6.57983C17.3171 6.57983 17.657 6.43902 17.9077 6.18838Z" fill="white"/>
</svg>
