<svg width="22" height="24" viewBox="0 0 22 24" fill="none" xmlns="http://www.w3.org/2000/svg">
<path d="M11.53 0.02C12.84 0 14.14 0.01 15.44 0C15.52 1.53 16.07 3.09 17.19 4.17C18.31 5.28 19.89 5.79 21.43 5.96V9.99C19.99 9.94 18.54 9.64 17.23 9.02C16.66 8.76 16.13 8.43 15.61 8.09C15.6 11.01 15.62 13.93 15.59 16.84C15.51 18.24 15.05 19.63 14.24 20.78C12.93 22.7 10.66 23.95 8.33 23.99C6.9 24.07 5.47 23.68 4.25 22.96C2.23 21.77 0.810003 19.59 0.600003 17.25C0.580003 16.75 0.570003 16.25 0.590003 15.76C0.770003 13.86 1.71 12.04 3.17 10.8C4.83 9.36 7.15 8.67 9.32 9.08C9.34 10.56 9.28 12.04 9.28 13.52C8.29 13.2 7.13 13.29 6.26 13.89C5.63 14.3 5.15 14.93 4.9 15.64C4.69 16.15 4.75 16.71 4.76 17.25C5 18.89 6.58 20.27 8.26 20.12C9.38 20.11 10.45 19.46 11.03 18.51C11.22 18.18 11.43 17.84 11.44 17.45C11.54 15.66 11.5 13.88 11.51 12.09C11.52 8.06 11.5 4.04 11.53 0.02Z" fill="white"/>
</svg>
