<svg width="24" height="18" viewBox="0 0 24 18" fill="none" xmlns="http://www.w3.org/2000/svg">
<path d="M23.4962 3.20321C23.2112 2.19146 22.4222 1.39796 21.4059 1.11746C19.5347 0.617211 12.0122 0.617212 12.0122 0.617212C12.0122 0.617212 4.50392 0.605211 2.61317 1.11746C1.60217 1.39871 0.809421 2.19146 0.527421 3.20321C0.172671 5.12096 -0.00357872 7.06196 0.00467128 9.01196C0.000921275 10.9492 0.176421 12.8872 0.527421 14.793C0.809421 15.8047 1.60217 16.5982 2.61317 16.8832C4.48442 17.3835 12.0122 17.3835 12.0122 17.3835C12.0122 17.3835 19.5159 17.3835 21.4059 16.8832C22.4222 16.5982 23.2112 15.8055 23.4962 14.793C23.8404 12.8872 24.0084 10.9492 23.9964 9.01196C24.0084 7.06196 23.8442 5.12096 23.4962 3.20321ZM9.60917 12.6022V5.40596L15.8709 9.01196L9.60917 12.6022Z" fill="white"/>
</svg>
